<svg width="80" height="80" viewBox="0 0 80 80" fill="none" xmlns="http://www.w3.org/2000/svg">
<g clip-path="url(#clip0_83_3)">
<path d="M79.9961 17.9592C79.9959 17.5344 79.834 17.1171 79.5218 16.8047L63.1953 0.478204C62.8829 0.166041 62.4655 0.0042449 62.0408 0.00408163V0H17.9592C17.0575 0 16.3265 0.730939 16.3265 1.63265V9.79592H1.63265C0.730939 9.79592 0 10.527 0 11.4286V69.3878C0 70.2893 0.730939 71.0204 1.63265 71.0204H16.3265V78.3673C16.3265 79.2689 17.0575 80 17.9592 80H78.3673C79.2691 80 80 79.2689 80 78.3673V17.9592H79.9961ZM63.6735 5.57437L74.4258 16.3265H63.6735V5.57437ZM3.26531 67.7551V13.0612H31.4286V24.0816C31.4286 24.9833 32.1595 25.7143 33.0612 25.7143H44.0816V67.7551H3.26531ZM34.6939 22.449V15.3703L41.7726 22.449H34.6939ZM76.7347 76.7347H19.5918V71.0204H45.7143C46.616 71.0204 47.3469 70.2893 47.3469 69.3878V24.0816C47.3469 23.6487 47.1749 23.2335 46.8687 22.9272L34.2157 10.2741C33.9096 9.968 33.4942 9.79592 33.0612 9.79592H19.5918V3.26531H60.4082V17.9592C60.4082 18.8607 61.1391 19.5918 62.0408 19.5918H76.7347V76.7347Z" fill="black" stroke="black"/>
<path d="M71.8368 26.1226H50.6123V29.3879H71.8368V26.1226Z" fill="black" stroke="black"/>
<path d="M71.8368 35.9185H50.6123V39.1838H71.8368V35.9185Z" fill="black" stroke="black"/>
<path d="M71.8368 45.7144H50.6123V48.9797H71.8368V45.7144Z" fill="black" stroke="black"/>
<path d="M71.8368 55.5103H50.6123V58.7756H71.8368V55.5103Z" fill="black" stroke="black"/>
<path d="M71.8368 65.3062H50.6123V68.5715H71.8368V65.3062Z" fill="black" stroke="black"/>
<path d="M17.9594 17.1428H7.34717V20.4081H17.9594V17.1428Z" fill="black" stroke="black"/>
<path d="M17.9594 23.6736H7.34717V26.9389H17.9594V23.6736Z" fill="black" stroke="black"/>
<path d="M40.0002 33.4695H7.34717V36.7348H40.0002V33.4695Z" fill="black" stroke="black"/>
<path d="M40.0002 41.6326H7.34717V44.8979H40.0002V41.6326Z" fill="black" stroke="black"/>
<path d="M40.0002 49.7959H7.34717V53.0612H40.0002V49.7959Z" fill="black" stroke="black"/>
<path d="M40.0002 57.9592H7.34717V61.2245H40.0002V57.9592Z" fill="black" stroke="black"/>
</g>
<defs>
<clipPath id="clip0_83_3">
<rect width="80" height="80" fill="white"/>
</clipPath>
</defs>
</svg>
