<svg width="82" height="93" viewBox="0 0 82 93" fill="none" xmlns="http://www.w3.org/2000/svg">
<path d="M40.9999 12.1473C31.6684 12.1473 24.0767 19.2151 24.0767 27.9026C24.0767 32.1189 25.8627 36.9034 28.8543 40.701C32.238 44.9964 36.5516 47.3621 40.9999 47.3621C45.4485 47.3621 49.7618 44.9966 53.1458 40.701C56.1374 36.9034 57.9234 32.1189 57.9234 27.9026C57.9234 19.2151 50.3314 12.1473 40.9999 12.1473ZM40.9999 44.003C37.7776 44.003 34.4113 42.0755 31.7639 38.7144C29.2478 35.5206 27.6848 31.3777 27.6848 27.9026C27.6848 21.0673 33.6579 15.5064 40.9999 15.5064C48.3419 15.5064 54.315 21.0673 54.315 27.9026C54.3153 34.9995 48.0458 44.003 40.9999 44.003Z" fill="white" stroke="white" stroke-width="1.98925"/>
<path d="M41 1C18.9441 1 1 17.7055 1 38.2395C1 58.7732 18.9439 75.4789 41 75.4789C63.0561 75.4789 81 58.7734 81 38.2395C81 17.7055 63.0559 1 41 1ZM41 72.1198C33.76 72.1196 27.0075 70.1404 21.3327 66.7336C21.5299 61.5899 24.0311 56.7676 28.266 53.4195C29.9488 52.089 32.4062 51.9437 34.381 53.0578C36.5142 54.2613 38.7413 54.8715 41.0007 54.8715C43.2596 54.8715 45.4861 54.2615 47.6182 53.0587C49.5909 51.9457 52.0418 52.0857 53.7167 53.4069C57.9548 56.7503 60.4701 61.5866 60.6671 66.734C54.9923 70.1406 48.2398 72.1198 41 72.1198ZM64.0681 64.4239C63.289 59.1651 60.4573 54.3217 56.0492 50.8442C53.1892 48.5882 49.0495 48.3235 45.7483 50.186C42.6275 51.9464 39.3725 51.9462 36.251 50.1851C32.946 48.3203 28.7988 48.5915 25.9304 50.8592C21.5261 54.3412 18.7057 59.1707 17.9288 64.4216C9.80115 58.2028 4.60811 48.7754 4.60811 38.2397C4.60811 19.5577 20.9336 4.3591 41 4.3591C61.0666 4.3591 77.3919 19.5577 77.3919 38.2395C77.3919 48.7765 72.1976 58.2051 64.0681 64.4239Z" fill="white" stroke="white" stroke-width="1.98925"/>
<path d="M65.4694 79.9102H16.5309C15.5345 79.9102 14.7268 80.6622 14.7268 81.5898C14.7268 82.5174 15.5345 83.2694 16.5309 83.2694H65.4694C66.4657 83.2694 67.2734 82.5174 67.2734 81.5898C67.2737 80.6622 66.4657 79.9102 65.4694 79.9102Z" fill="white" stroke="white" stroke-width="1.98925"/>
<path d="M65.4694 87.7009H16.5309C15.5345 87.7009 14.7268 88.4529 14.7268 89.3804C14.7268 90.308 15.5345 91.06 16.5309 91.06H65.4694C66.4657 91.06 67.2734 90.308 67.2734 89.3804C67.2737 88.4529 66.4657 87.7009 65.4694 87.7009Z" fill="white" stroke="white" stroke-width="1.98925"/>
</svg>
